<?xml version="1.0" encoding="UTF-8"?>
<svg version="1.1" xmlns="http://www.w3.org/2000/svg" width="512" height="512">
<path d="M0 0 C1.73572653 1.1664354 3.43735147 2.38457744 5.109375 3.640625 C10.72939736 7.80780129 16.43752134 11.82721062 22.1875 15.8125 C23.19361328 16.51117188 24.19972656 17.20984375 25.23632812 17.9296875 C31.43285179 22.22963938 37.64134925 26.51174973 43.86206055 30.77661133 C50.76650208 35.51512577 57.63378703 40.3069372 64.50512695 45.09326172 C70.05321355 48.95595239 75.61071767 52.80387137 81.1875 56.625 C88.02005043 61.30734822 94.80430897 66.05707337 101.58544922 70.81347656 C107.27255002 74.7993451 112.98198632 78.75038878 118.7109375 82.67578125 C125.66207846 87.44346243 132.57518501 92.26557128 139.49121094 97.08398438 C145.16695534 101.03609581 150.85558538 104.96806752 156.5625 108.875 C161.6971915 112.39497135 166.80231843 115.95365875 171.875 119.5625 C172.46482666 119.98063965 173.05465332 120.3987793 173.66235352 120.82958984 C179.73601961 125.17243717 179.73601961 125.17243717 180.6784668 128.12695312 C181.09348108 131.83529638 180.66135545 135.29920374 180.14453125 138.96875 C179.99016853 140.1056427 179.99016853 140.1056427 179.83268738 141.26550293 C179.61250232 142.86299855 179.38782575 144.45988076 179.15893555 146.05615234 C178.81394875 148.48978016 178.49525314 150.92593733 178.17773438 153.36328125 C177.95993444 154.91949576 177.74058458 156.47549429 177.51953125 158.03125 C177.42767044 158.75534058 177.33580963 159.47943115 177.24116516 160.22546387 C176.54243523 164.86567807 175.35346823 167.69750106 172 171 C168.60485177 172.19828761 166.3492867 172.51267793 162.93359375 171.21484375 C156.53073718 167.83587651 150.76982728 163.34327156 145 159 C143.66679355 157.99983085 142.33348154 156.99980236 141 156 C137.46412101 177.28235852 134.40623069 198.63081982 131.34426785 219.98521948 C130.77330944 223.96532659 130.20104806 227.94524594 129.62878919 231.92516625 C128.28070637 241.300769 126.93458826 250.67665227 125.58984375 260.05273438 C124.20398284 269.71530281 122.81510833 279.37743468 121.42474437 289.03935611 C120.22567385 297.37252476 119.0282393 305.70592728 117.83217549 314.03952801 C117.11994617 319.00197289 116.40713992 323.96433306 115.69283295 328.92647934 C115.02440937 333.57049841 114.35803349 338.2148067 113.69326401 342.8593502 C113.44888938 344.56430277 113.20379129 346.26915182 112.9579277 347.9738903 C112.62338476 350.29432088 112.29142776 352.61510685 111.96014404 354.93600464 C111.77360638 356.23552504 111.58706871 357.53504543 111.39487839 358.87394524 C110.93733872 361.97090865 110.93733872 361.97090865 111 365 C111.66541306 365.08912155 112.33082611 365.1782431 113.0164032 365.27006531 C119.94679902 366.20249787 126.87265821 367.16434495 133.79663086 368.14331055 C136.38054658 368.5047053 138.96552174 368.85860811 141.55151367 369.20483398 C145.27046374 369.70407464 148.98475977 370.23021615 152.69921875 370.76171875 C153.85459641 370.91090256 155.00997406 371.06008636 156.20036316 371.21379089 C165.14390197 372.53609737 165.14390197 372.53609737 168.23364258 375.42114258 C170.61479893 378.89759794 170.66416018 380.86744774 170 385 C168.18699656 388.08882068 167.13648453 389.6811432 163.64315796 390.66124535 C161.03354142 390.99570124 158.99130444 390.92327117 156.39697266 390.54507446 C155.4931101 390.41751613 154.58924755 390.28995779 153.65799522 390.15853405 C152.66999743 390.01034379 151.68199963 389.86215353 150.6640625 389.70947266 C149.60233133 389.55713574 148.54060017 389.40479883 147.44669533 389.24784565 C143.83824471 388.72799403 140.23169117 388.19597473 136.625 387.6640625 C133.98540295 387.28089535 131.34571841 386.89838696 128.7059021 386.51673889 C122.90044131 385.67625308 117.0958733 384.82979888 111.29168701 383.9805603 C102.69086599 382.72275175 94.08737063 381.48394233 85.48331618 380.24847543 C49.72218802 375.11133049 13.97883539 369.86390055 -21.74650192 364.48326111 C-42.56151528 361.34899111 -63.38161154 358.24984058 -84.20476151 355.17010498 C-98.50860814 353.05273347 -112.80681797 350.90253049 -127.0997721 348.7128275 C-137.03441341 347.19360948 -146.97420089 345.71179806 -156.9186033 344.25786036 C-162.73168697 343.40665156 -168.54097416 342.53857923 -174.34477615 341.62605476 C-179.72119184 340.78107934 -185.1025763 339.98398477 -190.49146652 339.22275233 C-192.44353153 338.93858061 -194.39321145 338.63736325 -196.33966064 338.31697774 C-210.12440313 336.06163136 -218.18001065 337.57585084 -230 345 C-231.74486639 345.89545777 -233.49863466 346.77437755 -235.26953125 347.6171875 C-245.96877422 352.93023038 -256.57436178 358.40028214 -267.11914062 364.01367188 C-267.73982422 364.33916016 -268.36050781 364.66464844 -269 365 C-269.67869141 365.36287109 -270.35738281 365.72574219 -271.05664062 366.09960938 C-273.93006861 367.43091621 -275.87136789 367.44694744 -279 367 C-281.86972996 365.00366611 -283.65210765 363.52770117 -284.44921875 360.02734375 C-284.63225749 356.65059455 -284.44868748 354.53528949 -282.25317383 351.91601562 C-280.03156519 350.02684187 -277.98007179 348.72667421 -275.38671875 347.40625 C-274.47937988 346.93904541 -273.57204102 346.47184082 -272.63720703 345.99047852 C-271.66380371 345.49862061 -270.69040039 345.0067627 -269.6875 344.5 C-267.61579645 343.43637119 -265.54418458 342.37256378 -263.47265625 341.30859375 C-262.4067627 340.76444824 -261.34086914 340.22030273 -260.24267578 339.65966797 C-255.02254858 336.98789981 -249.82399431 334.27509285 -244.625 331.5625 C-243.69389404 331.07910156 -242.76278809 330.59570312 -241.8034668 330.09765625 C-236.73898484 327.46176431 -231.73433551 324.75492481 -226.79052734 321.89819336 C-225 321 -225 321 -223 321 C-222.85535812 319.77180542 -222.71071625 318.54361084 -222.56169128 317.27819824 C-220.12311519 297.0070349 -217.15864806 276.8107072 -214.24373269 256.60387611 C-213.49342273 251.39919279 -212.74565952 246.19414354 -211.99760437 240.98913574 C-210.58637197 231.17237436 -209.17291183 221.35593515 -207.75861281 211.53961515 C-206.14617386 200.34726326 -204.53627693 189.15454616 -202.9265734 177.96180058 C-199.62050608 154.97413173 -196.31131181 131.98691393 -193 109 C-194.76249689 109.4742899 -196.52453479 109.95028569 -198.28637695 110.42700195 C-199.26766068 110.69188919 -200.2489444 110.95677643 -201.25996399 111.22969055 C-204.29141482 112.08192578 -207.23297895 113.09986954 -210.1875 114.1875 C-215.10579305 115.83968923 -218.83802282 116.73742531 -224 116 C-226.43119623 114.12984906 -227.64069173 112.71861655 -229 110 C-229.07406252 100.97918537 -227.56910831 91.8494561 -226.3125 82.9375 C-226.17626221 81.84300537 -226.04002441 80.74851074 -225.8996582 79.62084961 C-225.74327881 78.57936768 -225.58689941 77.53788574 -225.42578125 76.46484375 C-225.29598877 75.532771 -225.16619629 74.60069824 -225.0324707 73.64038086 C-223.33829708 69.30779922 -220.18093421 67.01309623 -216.08103943 65.1085968 C-213.92816737 64.29081955 -211.76423585 63.5744211 -209.56640625 62.88671875 C-208.77024399 62.62744095 -207.97408173 62.36816315 -207.15379333 62.10102844 C-205.47926859 61.55928823 -203.8025371 61.02432651 -202.1237793 60.49584961 C-199.56783361 59.68918331 -197.02122 58.85709482 -194.47460938 58.02148438 C-192.83903359 57.49586264 -191.20298041 56.97172366 -189.56640625 56.44921875 C-188.43483849 56.07901863 -188.43483849 56.07901863 -187.28041077 55.70133972 C-180.75139603 53.67154907 -175.21895997 52.90511897 -168.94140625 56.1875 C-168.06162109 56.63867188 -167.18183594 57.08984375 -166.27539062 57.5546875 C-165.38013672 58.03164062 -164.48488281 58.50859375 -163.5625 59 C-162.64017578 59.47695312 -161.71785156 59.95390625 -160.76757812 60.4453125 C-158.50481797 61.61772709 -156.24967374 62.80272141 -154 64 C-154.15855469 63.11570312 -154.31710938 62.23140625 -154.48046875 61.3203125 C-154.9266376 58.46885744 -155.22670688 55.75584253 -155.3125 52.875 C-155.34988281 52.04742187 -155.38726562 51.21984375 -155.42578125 50.3671875 C-154.84067326 47.11420182 -153.49429155 46.1319412 -151 44 C-148.36378479 42.79220295 -148.36378479 42.79220295 -145.30688477 41.77937317 C-144.14601349 41.38826859 -142.98514221 40.997164 -141.78909302 40.59420776 C-140.5066044 40.1756166 -139.22403956 39.75725891 -137.94140625 39.33911133 C-136.5873752 38.88797427 -135.23369488 38.4357834 -133.88034058 37.98262024 C-130.21040043 36.75711986 -126.53569931 35.54652016 -122.85993576 34.33861756 C-119.01262852 33.0716311 -115.16978293 31.79125328 -111.32641602 30.51237488 C-104.87286228 28.36701152 -98.41648699 26.23034105 -91.95800781 24.09985352 C-82.85060207 21.09554183 -73.74832343 18.07593623 -64.64705849 15.05308115 C-52.45521021 11.00464503 -40.26190874 6.96047666 -28.0626564 2.93440056 C-26.74187297 2.49830819 -25.42124874 2.06173329 -24.10079575 1.62464142 C-22.29869619 1.02825927 -20.49592251 0.43391525 -18.69311523 -0.1603241 C-17.68433823 -0.49342685 -16.67556122 -0.8265296 -15.63621521 -1.16972637 C-9.28256779 -3.17080196 -6.10304672 -2.79613174 0 0 Z M-19.21362305 49.35324097 C-20.57661026 49.80326981 -20.57661026 49.80326981 -21.96713257 50.26239014 C-22.97184601 50.59587463 -23.97655945 50.92935913 -25.01171875 51.27294922 C-26.0636441 51.62086517 -27.11556946 51.96878113 -28.19937134 52.32723999 C-31.69604489 53.48449538 -35.19187143 54.64427964 -38.6875 55.8046875 C-39.8768515 56.19936344 -41.066203 56.59403938 -42.29159546 57.0006752 C-47.28635709 58.65851624 -52.28090744 60.31698929 -57.27467346 61.97782707 C-64.44298624 64.3618458 -71.61294649 66.74075988 -78.78530788 69.1125716 C-84.4284748 70.97920335 -90.06890986 72.85399418 -95.70840454 74.73169327 C-98.11264332 75.5308575 -100.51773745 76.32745298 -102.92367554 77.12148666 C-106.28091048 78.23010704 -109.63491895 79.34799157 -112.98828125 80.46826172 C-113.99299469 80.79769775 -114.99770813 81.12713379 -116.03286743 81.46655273 C-116.94152557 81.77221161 -117.85018372 82.07787048 -118.78637695 82.39279175 C-119.58058548 82.65642454 -120.37479401 82.92005733 -121.19306946 83.191679 C-123.19264779 83.8570974 -123.19264779 83.8570974 -124 86 C-121.71125827 87.33858524 -119.41930344 88.67101014 -117.125 90 C-116.47402344 90.3815625 -115.82304687 90.763125 -115.15234375 91.15625 C-111.79649799 93.27551156 -111.79649799 93.27551156 -108 94 C-105.359729 101.92081301 -107.61857019 110.70820879 -109.02148438 118.66601562 C-110.5620103 128.04531069 -108.47007738 135.02077456 -105.08398438 143.68359375 C-101.93255432 152.1230166 -102.98404918 158.07955734 -106.3125 166.25 C-106.62123047 167.05179687 -106.92996094 167.85359375 -107.24804688 168.6796875 C-109.98972466 175.58294358 -109.98972466 175.58294358 -113 178 C-117.35570056 178.64528897 -119.30901539 178.46065641 -123 176 C-125.19112802 172.71330797 -125.40302854 171.09606036 -124.66796875 167.24609375 C-123.66099461 163.86006959 -122.25756902 160.67971414 -120.7421875 157.4921875 C-119.20680056 152.33651976 -121.37180107 147.81204298 -123.2734375 143.03833008 C-126.49380712 134.85722481 -127.65356427 128.76959256 -126 120 C-125.64079059 117.41736303 -125.28669063 114.83401065 -124.9375 112.25 C-124.62852946 110.1661403 -124.31731994 108.08260464 -124 106 C-126.32968239 104.59291307 -128.66280665 103.19274371 -131.00390625 101.8046875 C-133.05210727 100.57096016 -135.0802633 99.30349648 -137.08984375 98.0078125 C-138.11207031 97.36585938 -139.13429688 96.72390625 -140.1875 96.0625 C-141.60095703 95.15177734 -141.60095703 95.15177734 -143.04296875 94.22265625 C-149.74301824 91.45235837 -156.91902174 95.17360552 -163.375 97.5 C-164.28894531 97.82097656 -165.20289063 98.14195312 -166.14453125 98.47265625 C-170.3837803 99.69845667 -170.3837803 99.69845667 -174 102 C-174.48138016 104.75515158 -174.90560554 107.50061449 -175.2971344 110.26902771 C-175.42457895 111.14643476 -175.5520235 112.02384181 -175.68333 112.92783695 C-176.11263112 115.89069975 -176.53589675 118.85439408 -176.95922852 121.81811523 C-177.26443464 123.9332688 -177.57000542 126.04836977 -177.87591553 128.16342163 C-178.70816145 133.92516444 -179.53516728 139.68764867 -180.3611958 145.45028567 C-181.22454322 151.46759416 -182.09239253 157.48425331 -182.95970154 163.50099182 C-184.41596316 173.60808787 -185.8690657 183.71563401 -187.32006836 193.82348633 C-189.1847423 206.81290045 -191.05460567 219.80156193 -192.9261179 232.78999233 C-194.53187709 243.93438232 -196.13523082 255.07911817 -197.73820758 266.22390866 C-198.25506296 269.81663417 -198.7722547 273.40931114 -199.28949165 277.00198174 C-200.1010015 282.63971118 -200.91101471 288.27765371 -201.71984863 293.91576767 C-202.01768338 295.99035998 -202.31599948 298.06488325 -202.61482048 300.13933372 C-203.02114152 302.96069902 -203.42573154 305.78230705 -203.82984924 308.60398865 C-203.94978652 309.43403473 -204.0697238 310.26408081 -204.19329554 311.1192798 C-204.78462244 315.0439392 -204.78462244 315.0439392 -205 319 C-194.15494436 320.96116912 -183.30160177 322.76460209 -172.39575195 324.36010742 C-170.92513697 324.57710053 -169.45455175 324.79429548 -167.98399353 325.01167297 C-164.05118107 325.59233419 -160.11792195 326.16991029 -156.18452859 326.74662185 C-152.88607359 327.23048149 -149.58782869 327.71576543 -146.28957433 328.2009905 C-138.51345843 329.34489837 -130.73695238 330.48612573 -122.96020508 331.62573242 C-114.95287098 332.7991875 -106.94629103 333.97769197 -98.9400447 335.15854377 C-92.03650851 336.17654845 -85.13248885 337.19122685 -78.22807854 338.20328599 C-74.11647921 338.80601822 -70.00508117 339.41004812 -65.89415932 340.01738548 C-62.03928511 340.58676686 -58.18382447 341.15199557 -54.32787514 341.71404839 C-52.91594716 341.92056513 -51.50423241 342.1285459 -50.09275436 342.33811569 C-48.16299545 342.62440015 -46.2323705 342.90482851 -44.30171204 343.1849823 C-43.22317113 343.34332141 -42.14463022 343.50166052 -41.03340626 343.66479778 C-37.9954585 344.00050185 -35.05372084 344.05968678 -32 344 C-31.91423014 343.40107752 -31.82846027 342.80215504 -31.74009132 342.18508339 C-29.64791963 327.57701706 -27.5526729 312.96939405 -25.45405006 298.36225319 C-24.43922424 291.29819372 -23.42541984 284.23399055 -22.4140625 277.16943359 C-21.53202853 271.00824806 -20.64803473 264.84734737 -19.76173723 258.68677366 C-19.29300602 255.42818934 -18.82551556 252.16943503 -18.3597908 248.91041946 C-17.83829649 245.26233351 -17.31333998 241.61476099 -16.78759766 237.96728516 C-16.63582565 236.89985077 -16.48405365 235.83241638 -16.3276825 234.7326355 C-15.41650587 228.4413532 -14.31874274 222.21885018 -13 216 C-3.87113366 212.95704455 7.0102937 215.96962249 16.328125 217.3359375 C18.00716829 217.57814504 19.68626679 217.8199701 21.36541748 218.06143188 C24.869226 218.56676812 28.37233252 219.07666002 31.875 219.58984375 C36.35815182 220.24631037 40.84285736 220.89137426 45.32814407 221.53307152 C48.78950958 222.02954531 52.24998789 222.53199099 55.71022797 223.03624344 C57.36373209 223.27648175 59.01750445 223.51488152 60.67154694 223.75138474 C62.98150746 224.08259584 65.29015215 224.42183087 67.59863281 224.76318359 C68.27717316 224.85885117 68.9557135 224.95451874 69.65481567 225.05308533 C73.34177446 225.60789673 76.65201713 226.32960907 80 228 C83.47292334 234.94584668 80.65741257 246.03949346 79.53125 253.45654297 C79.29716431 255.06868431 79.29716431 255.06868431 79.05834961 256.71339417 C78.54672821 260.22418901 78.0232949 263.7331155 77.5 267.2421875 C77.14040797 269.69918341 76.78169826 272.1563086 76.42382812 274.61355591 C75.48411911 281.05332364 74.53495875 287.49165828 73.58300781 293.92962646 C72.05743157 304.25361871 70.54346567 314.57930419 69.03491211 324.90579605 C68.50715002 328.5059138 67.97359983 332.10513992 67.43945312 335.70431519 C67.11568987 337.90945616 66.79211212 340.11462438 66.46875 342.31982422 C66.24433228 343.81608589 66.24433228 343.81608589 66.01538086 345.34257507 C65.88075439 346.26745224 65.74612793 347.19232941 65.60742188 348.14523315 C65.48943237 348.94266874 65.37144287 349.74010433 65.24987793 350.56170464 C64.96300026 353.36104143 65 356.1860019 65 359 C74.24 360.32 83.48 361.64 93 363 C96.39493892 339.50486885 99.78540484 316.00909717 103.16993713 292.51246452 C104.74153004 281.60270367 106.31470524 270.69317536 107.89160156 259.78417969 C109.26594698 250.27640633 110.63732761 240.7682109 112.00514317 231.25949585 C112.72955582 226.22429415 113.4554558 221.18931697 114.18490601 216.15484238 C114.87144714 211.41618511 115.55402244 206.67697351 116.23356247 201.93730736 C116.4836374 200.19805169 116.73515963 198.45900341 116.98823929 196.72018242 C117.33371868 194.34499384 117.67396874 191.96911195 118.01293945 189.59298706 C118.11410411 188.90620247 118.21526876 188.21941787 118.31949902 187.51182163 C118.86487291 183.64324346 119.09540199 179.90544356 119 176 C116.25162151 175.46892686 113.50187625 174.94984119 110.75 174.4375 C109.97269531 174.28603516 109.19539063 174.13457031 108.39453125 173.97851562 C107.64042969 173.83994141 106.88632812 173.70136719 106.109375 173.55859375 C105.41811523 173.42767334 104.72685547 173.29675293 104.01464844 173.16186523 C101.78712058 172.98289638 100.12493038 173.34793803 98 174 C97.67386719 175.26457031 97.34773438 176.52914062 97.01171875 177.83203125 C96.57084848 179.49232992 96.12941267 181.15247848 95.6875 182.8125 C95.47416016 183.64587891 95.26082031 184.47925781 95.04101562 185.33789062 C94.82509766 186.14033203 94.60917969 186.94277344 94.38671875 187.76953125 C94.19295654 188.50792236 93.99919434 189.24631348 93.79956055 190.00708008 C92.87434765 192.31319088 91.92542724 193.4422568 90 195 C87.49357882 195.94278228 85.06377018 196.75708932 82.5 197.5 C81.78457031 197.71358154 81.06914062 197.92716309 80.33203125 198.1472168 C78.8919885 198.5746083 77.45058707 198.99745062 76.0078125 199.41552734 C74.26096441 199.92403346 72.52047154 200.45427269 70.78125 200.98828125 C65.36223655 202.59419675 60.65132381 203.69402222 55 203 C52.5 201.4375 52.5 201.4375 51 199 C50.47737729 195.34164103 50.25970082 193.0925213 52.37109375 189.9765625 C56.36204122 186.97593929 60.772156 186.09765363 65.5625 184.875 C67.46087724 184.37710684 69.35807555 183.87469088 71.25390625 183.3671875 C72.09252197 183.15175293 72.9311377 182.93631836 73.79516602 182.71435547 C76.2502659 182.02905075 76.2502659 182.02905075 79 180 C79.91508812 177.84805986 79.91508812 177.84805986 80.5 175.31640625 C80.87125 173.92518555 80.87125 173.92518555 81.25 172.50585938 C81.4975 171.53455078 81.745 170.56324219 82 169.5625 C82.4906264 167.64471294 82.99027417 165.72920552 83.5 163.81640625 C83.82484375 162.53938843 83.82484375 162.53938843 84.15625 161.23657227 C85.07996273 158.7880386 85.96600119 157.62174035 88 156 C93.53872725 154.30168456 98.85230803 155.51772417 104.4375 156.4375 C110.3561958 157.39132219 115.99707346 158.20642801 122 158 C122.36644578 156.44033408 122.71760862 154.87707349 123.0625 153.3125 C123.25972656 152.44238281 123.45695312 151.57226562 123.66015625 150.67578125 C124.03747844 147.70491114 123.99678655 145.82884331 123 143 C121.04723376 141.03497766 121.04723376 141.03497766 118.4375 139.375 C116.94089844 138.34439453 116.94089844 138.34439453 115.4140625 137.29296875 C114.59083496 136.74068604 114.59083496 136.74068604 113.75097656 136.17724609 C111.91406937 134.94222567 110.09274851 133.68656471 108.2734375 132.42578125 C104.1929138 129.60158773 100.09686389 126.80041252 96 124 C86.43258099 117.45148472 76.90809599 110.84539323 67.41625977 104.18774414 C61.72860948 100.20143937 56.01859128 96.25000699 50.2890625 92.32421875 C44.34003254 88.24387017 38.41942102 84.12314974 32.5 80 C24.05140255 74.11683012 15.58938966 68.25465717 7.09521484 62.4375 C4.67152305 60.77463618 2.25183131 59.10602159 -0.16796875 57.4375 C-1.92442496 56.22908787 -3.6809346 55.02075341 -5.4375 53.8125 C-6.2737793 53.2347583 -7.11005859 52.6570166 -7.97167969 52.06176758 C-8.74286133 51.53220459 -9.51404297 51.0026416 -10.30859375 50.45703125 C-10.99751709 49.98241455 -11.68644043 49.50779785 -12.39624023 49.01879883 C-14.99190323 47.36988702 -16.35132882 48.405837 -19.21362305 49.35324097 Z M1 233 C-0.10322851 240.43400396 -1.20586317 247.86809584 -2.30810547 255.30224609 C-2.68232106 257.82570337 -3.05666735 260.34914128 -3.43115234 262.87255859 C-4.47855864 269.93068046 -5.52252599 276.98929515 -6.56286621 284.04846191 C-6.93851047 286.58482116 -7.31965136 289.12023816 -7.70410156 291.65527344 C-7.88682617 292.88020508 -8.06955078 294.10513672 -8.2578125 295.3671875 C-8.48041748 296.83454346 -8.48041748 296.83454346 -8.70751953 298.33154297 C-9.02626446 301.23962484 -9.05120841 304.07680814 -9 307 C-7.33315599 304.49973399 -6.40869492 302.67368612 -5.4152832 299.90600586 C-4.96890251 298.67212379 -4.96890251 298.67212379 -4.51350403 297.41331482 C-4.19580551 296.52281937 -3.87810699 295.63232391 -3.55078125 294.71484375 C-3.21507614 293.78515274 -2.87937103 292.85546173 -2.53349304 291.89759827 C-1.45601151 288.912258 -0.38386838 285.92503904 0.6875 282.9375 C2.77137004 277.1377556 4.86151567 271.3406936 6.98193359 265.55419922 C8.31185404 261.92417112 9.59094301 258.28203222 10.83447266 254.62158203 C11.41626628 252.97793298 11.99874789 251.33452723 12.58203125 249.69140625 C12.82515549 248.93810532 13.06827972 248.18480438 13.31877136 247.40867615 C14.07739258 245.32641602 14.07739258 245.32641602 16 242 C20.63399861 239.84625946 23.70876982 239.6903672 28.4765625 241.37890625 C29.47155762 241.72115234 30.46655273 242.06339844 31.49169922 242.41601562 C32.52568848 242.79435547 33.55967773 243.17269531 34.625 243.5625 C35.6886377 243.93439453 36.75227539 244.30628906 37.84814453 244.68945312 C44.5515571 247.05115 51.21756 249.51751765 57.8046875 252.1875 C59.92246899 253.11569898 59.92246899 253.11569898 62 253 C62.36103536 251.18885568 62.71365504 249.37603177 63.0625 247.5625 C63.25972656 246.55316406 63.45695312 245.54382813 63.66015625 244.50390625 C63.77230469 243.67761719 63.88445312 242.85132813 64 242 C62.32450789 240.32450789 60.13954203 240.48206195 57.84106445 240.15209961 C56.18848381 239.91196388 56.18848381 239.91196388 54.5025177 239.66697693 C53.30156967 239.49714798 52.10062164 239.32731903 50.86328125 239.15234375 C49.63594772 238.97619034 48.4086142 238.80003693 47.14408875 238.61854553 C44.5391194 238.24582227 41.93397069 237.87482306 39.32836914 237.5065918 C36.65951341 237.12922295 33.9912466 236.74807383 31.32348633 236.36303711 C27.48321507 235.80912208 23.64215506 235.26105476 19.80078125 234.71484375 C18.60995438 234.54299057 17.4191275 234.37113739 16.19221497 234.19407654 C15.07473373 234.03713821 13.9572525 233.88019989 12.8059082 233.71850586 C11.82741409 233.57940292 10.84891998 233.44029999 9.84077454 233.29698181 C6.8735582 232.98678145 3.98118561 232.94923461 1 233 Z M-10 308 C-9 310 -9 310 -9 310 Z " fill="#000000" transform="translate(308,62)"/>
<path d="M0 0 C1.84935745 0.26298459 3.69873837 0.5258041 5.54814148 0.78846741 C9.4019818 1.33668734 13.25543402 1.88754336 17.10864258 2.44018555 C22.03472383 3.14639022 26.96185825 3.84492646 31.88932514 4.54138851 C35.69973339 5.08100052 39.50948022 5.62517128 43.31905174 6.1706562 C45.13562633 6.43011562 46.95241873 6.68805502 48.76943398 6.94441032 C51.3083332 7.30320608 53.84625609 7.668275 56.3840332 8.03491211 C57.12547577 8.13835937 57.86691833 8.24180664 58.63082886 8.34838867 C69.6560924 9.96138669 69.6560924 9.96138669 73.61686707 12.64878845 C78.28590557 19.97734836 73.8273201 34.18088201 72.6171875 42.4375 C72.39975532 43.95530842 72.18274775 45.47317772 71.96614075 46.99110413 C71.51361267 50.14767023 71.05478285 53.30323932 70.59155273 56.45825195 C69.99980345 60.49339902 69.42604685 64.53087596 68.85712719 68.56929684 C68.41458349 71.69402503 67.96164864 74.81718042 67.50567055 77.93997383 C67.28976289 79.42857303 67.07728179 80.91767358 66.86836815 82.40727043 C66.5755238 84.48539824 66.268477 86.56095366 65.95776367 88.63647461 C65.78677658 89.81495468 65.61578949 90.99343475 65.43962097 92.20762634 C64.43822188 96.45453838 62.76892112 99.27795388 59.69921875 102.34765625 C53.26136267 103.08679056 46.66541393 102.12491264 40.28979492 101.2019043 C39.4087912 101.07992676 38.52778748 100.95794922 37.62008667 100.83227539 C34.74305956 100.43182553 31.86761191 100.02116403 28.9921875 99.609375 C26.9782558 99.32481357 24.96428313 99.04054197 22.95027161 98.75654602 C18.74617854 98.16191239 14.54290382 97.56184324 10.34008789 96.95825195 C4.95729293 96.18592902 -0.42769718 95.43028423 -5.81346607 94.67901897 C-9.96584859 94.09741335 -14.11671558 93.50551719 -18.26721764 92.91065407 C-20.25262306 92.62765459 -22.23853765 92.34820333 -24.22495461 92.07239342 C-26.99773181 91.68613372 -29.76810379 91.28568642 -32.53833008 90.8815918 C-33.35556046 90.77081802 -34.17279083 90.66004425 -35.01478577 90.5459137 C-39.38954378 89.89090297 -42.70131933 89.10550491 -46.30078125 86.34765625 C-51.24757192 78.92747024 -47.44704125 67.05901682 -46.21875 58.62109375 C-46.00146145 57.10376831 -45.78445078 55.58640306 -45.56770325 54.06900024 C-45.11385028 50.9031032 -44.65510114 47.73796221 -44.19311523 44.57324219 C-43.60384294 40.53227051 -43.02929449 36.48935917 -42.45868969 32.44571495 C-42.0150743 29.31677258 -41.56243257 26.18918485 -41.10723305 23.06190872 C-40.89170737 21.57211578 -40.67922034 20.08187974 -40.46993065 18.59119797 C-40.17572973 16.5038174 -39.8690584 14.41862106 -39.55932617 12.33349609 C-39.38833908 11.15040863 -39.21735199 9.96732117 -39.04118347 8.74838257 C-37.07623654 -0.27677503 -37.07623654 -0.27677503 -33.42851257 -3.10292053 C-23.60473614 -5.63961809 -9.99872407 -1.43276118 0 0 Z M4.69921875 19.34765625 C6.34921875 22.64765625 7.99921875 25.94765625 9.69921875 29.34765625 C10.57964844 29.16847656 11.46007812 28.98929687 12.3671875 28.8046875 C13.52863281 28.59199219 14.69007813 28.37929688 15.88671875 28.16015625 C17.03527344 27.93972656 18.18382812 27.71929687 19.3671875 27.4921875 C23.30343847 27.32144742 24.70732704 27.82487648 27.69921875 30.34765625 C29.2109375 32.90625 29.2109375 32.90625 30.38671875 35.78515625 C30.78246094 36.73261719 31.17820312 37.68007813 31.5859375 38.65625 C31.95332031 39.54441406 32.32070312 40.43257813 32.69921875 41.34765625 C33.35247461 42.6876111 34.01384072 44.02384389 34.69921875 45.34765625 C35.40046875 45.03828125 36.10171875 44.72890625 36.82421875 44.41015625 C39.88870014 43.27763052 42.43243443 42.55183027 45.69921875 42.34765625 C48.38671875 43.66015625 48.38671875 43.66015625 50.69921875 45.34765625 C51.68921875 46.00765625 52.67921875 46.66765625 53.69921875 47.34765625 C55.18421875 36.95265625 55.18421875 36.95265625 56.69921875 26.34765625 C51.3837293 25.50674428 46.06791707 24.6690713 40.75073242 23.83911133 C38.94771363 23.55674178 37.14497002 23.27260855 35.3425293 22.98657227 C25.12332297 21.36614272 15.03601312 19.9575194 4.69921875 19.34765625 Z " fill="#000000" transform="translate(186.30078125,258.65234375)"/>
</svg>
